<svg width="34" height="30" viewBox="0 0 34 30" fill="none" xmlns="http://www.w3.org/2000/svg">
<g id="Group 154">
<path id="Vector 63" d="M23.6171 6.12492C17.0697 8.3649 20.9753 17.7422 20.9753 17.7422L26.7358 15.2587C27.6124 12.712 29.2086 9.76113 28.3633 8.09271C27.5179 6.4243 25.5155 5.47542 23.6171 6.12492Z" fill="url(#paint0_linear_139_999)"/>
<g id="Group 153">
<path id="Vector 63_2" d="M10.1085 23.8752C16.6559 21.6352 12.7503 12.258 12.7503 12.258L6.98983 14.7414C6.11321 17.2881 4.51697 20.239 5.36233 21.9074C6.20769 23.5758 8.21005 24.5247 10.1085 23.8752Z" fill="url(#paint1_linear_139_999)"/>
<path id="Vector 62" d="M10.1093 13.5644C5.50202 15.9307 4.98186 20.1622 5.39453 21.9085C5.39453 21.9085 2.26246 17.763 2.67127 14.5762C3.08007 11.3894 3.46595 10.4683 4.97615 8.30059C7.63313 4.48676 12.9373 2.95824 15.3118 3.05764C15.3118 3.05764 20.0449 3.1604 20.2583 7.31074C20.3861 9.79605 17.4276 11.4727 16.5283 11.7386C14.0291 12.4776 12.6453 12.262 10.1093 13.5644Z" fill="#DEE2DA"/>
</g>
<path id="Vector 62_2" d="M23.6153 16.4357C28.2226 14.0694 28.7427 9.83794 28.3301 8.09162C28.3301 8.09162 31.4621 12.2371 31.0533 15.4239C30.6445 18.6107 30.2587 19.5318 28.7485 21.6995C26.0915 25.5134 20.7873 27.0419 18.4128 26.9425C18.4128 26.9425 13.6797 26.8397 13.4663 22.6894C13.3385 20.2041 16.297 18.5275 17.1963 18.2615C19.6955 17.5225 21.0793 17.7381 23.6153 16.4357Z" fill="#DEE2DA"/>
</g>
<defs>
<linearGradient id="paint0_linear_139_999" x1="22.9474" y1="6.23538" x2="25.8221" y2="20.558" gradientUnits="userSpaceOnUse">
<stop stop-color="#DEE2DA"/>
<stop offset="0.39" stop-color="#DEE2DA"/>
<stop offset="0.565" stop-color="#D0D5CA"/>
<stop offset="1" stop-color="#1A1A1A"/>
</linearGradient>
<linearGradient id="paint1_linear_139_999" x1="10.7782" y1="23.7647" x2="7.90344" y2="9.44215" gradientUnits="userSpaceOnUse">
<stop stop-color="#DEE2DA"/>
<stop offset="0.39" stop-color="#DEE2DA"/>
<stop offset="0.565" stop-color="#D0D5CA"/>
<stop offset="1" stop-color="#1A1A1A"/>
</linearGradient>
</defs>
</svg>
