<svg width="69" height="26" viewBox="0 0 69 26" fill="none" xmlns="http://www.w3.org/2000/svg">
<path d="M0.166016 25.5684V6.50126H3.15635L3.12674 9.5212C4.22221 7.56712 6.53158 6.29401 9.13702 6.29401C13.4301 6.29401 16.6277 9.58042 16.6277 13.9919C16.6277 18.3738 13.4301 21.6602 9.13702 21.6602C6.50197 21.6602 4.22221 20.4463 3.15635 18.4922V25.5684H0.166016ZM8.27841 19.114C11.2687 19.114 13.5485 16.923 13.5485 14.0511C13.5485 11.12 11.2687 8.89945 8.27841 8.89945C5.28807 8.89945 3.00831 11.1496 3.00831 14.0511C3.00831 16.8934 5.28807 19.114 8.27841 19.114Z" fill="#DEE2DA"/>
<path d="M26.689 21.6306C22.396 21.6306 19.1984 18.3442 19.1984 13.9327C19.1984 9.55081 22.396 6.2644 26.689 6.2644C29.2945 6.2644 31.6039 7.50791 32.6993 9.46199L32.6697 6.47165H35.66V21.4233H32.6697L32.6993 18.4034C31.6039 20.3871 29.2945 21.6306 26.689 21.6306ZM27.5477 19.0251C30.538 19.0251 32.8177 16.8046 32.8177 13.8735C32.8177 11.0312 30.5084 8.84023 27.5477 8.84023C24.5277 8.84023 22.2776 11.0016 22.2776 13.8735C22.2776 16.8046 24.5277 19.0251 27.5477 19.0251Z" fill="#DEE2DA"/>
<path d="M41.6652 3.80699C40.5698 3.80699 39.7112 3.15563 39.7112 2.11938C39.7112 1.11273 40.5698 0.431763 41.6652 0.431763C42.7607 0.431763 43.6193 1.11273 43.6193 2.11938C43.6193 3.15563 42.7607 3.80699 41.6652 3.80699ZM40.1849 21.4233V6.50126H43.2048V21.4233H40.1849Z" fill="#DEE2DA"/>
<path d="M56.316 9.04749C52.319 8.72181 50.661 11.2384 50.661 14.7025V21.4233H47.6707V6.50126H50.661L50.5722 9.4916C51.342 7.65594 53.1776 6.02754 56.316 6.29401V9.04749Z" fill="#DEE2DA"/>
<path d="M68.2243 17.3375C68.2243 19.8245 66.0926 21.6306 63.1023 21.6602C60.941 21.6898 58.8981 20.8904 57.2401 19.5285L58.9573 17.604C60.0823 18.581 61.5923 19.2324 62.8654 19.2028C64.1978 19.2028 65.234 18.433 65.2044 17.3671C65.2044 16.1236 64.5827 15.6203 62.6878 15.0874C59.3422 14.2288 57.773 12.926 57.773 10.4982C57.773 8.07044 59.8455 6.32361 62.747 6.2644C64.5827 6.23479 66.5071 6.97497 67.7802 8.18887L66.1222 9.87649C65.2636 9.16591 64.0497 8.6922 63.0135 8.72181C61.6515 8.72181 60.7041 9.49159 60.7041 10.4982C60.7041 11.5345 61.3555 12.1266 63.1911 12.5708C66.5663 13.3702 68.1947 14.8801 68.2243 17.3375Z" fill="#DEE2DA"/>
</svg>
