<svg width="64" height="66" viewBox="0 0 64 66" fill="none" xmlns="http://www.w3.org/2000/svg">
<g id="token:arbitrum">
<path id="Vector" d="M34.7137 36.3422L32.7337 41.741C32.6721 41.8934 32.6721 42.0638 32.7337 42.2162L36.1288 51.5143L40.0756 49.2518L35.3473 36.3422C35.3223 36.2787 35.2786 36.2241 35.2221 36.1857C35.1656 36.1472 35.0989 36.1266 35.0305 36.1266C34.9622 36.1266 34.8954 36.1472 34.8389 36.1857C34.7824 36.2241 34.7388 36.2787 34.7137 36.3422ZM38.6737 27.2474C38.6497 27.1828 38.6065 27.127 38.5499 27.0876C38.4932 27.0482 38.4259 27.0271 38.3569 27.0271C38.288 27.0271 38.2206 27.0482 38.164 27.0876C38.1074 27.127 38.0641 27.1828 38.0401 27.2474L36.0601 32.6436C35.9985 32.796 35.9985 32.9664 36.0601 33.1188L41.6385 48.3463L45.5747 46.0838L38.6737 27.2342V27.2474Z" fill="#DEE2DA"/>
<path id="Vector_2" d="M31.6796 15.1536C31.7799 15.1536 31.8741 15.18 31.9621 15.2328L47.2371 24.1111C47.3236 24.1598 47.3955 24.2308 47.4452 24.3167C47.4949 24.4026 47.5206 24.5003 47.5196 24.5995V41.8757C47.5201 41.9745 47.4942 42.0716 47.4445 42.157C47.3948 42.2424 47.3232 42.313 47.2371 42.3614L31.9621 51.2767C31.8757 51.3248 31.7785 51.3501 31.6796 51.3501C31.5808 51.3501 31.4835 51.3248 31.3971 51.2767L16.1221 42.3799C16.0344 42.3306 15.9618 42.2584 15.912 42.1709C15.8623 42.0835 15.8373 41.9842 15.8396 41.8836V24.5995C15.8396 24.3936 15.9531 24.2141 16.1221 24.1111L31.3971 15.2302C31.4808 15.1739 31.5788 15.1427 31.6796 15.1404V15.1536ZM31.6796 12.8779C31.149 12.8779 30.6051 13.0231 30.1299 13.295L15.1268 21.9278C14.6568 22.198 14.2661 22.5871 13.9941 23.0561C13.7221 23.5251 13.5783 24.0574 13.5771 24.5995V41.8757C13.5771 42.9739 14.1659 44.0035 15.1268 44.5579L30.1299 53.1907C30.6008 53.4638 31.1354 53.6076 31.6796 53.6076C32.2239 53.6076 32.7585 53.4638 33.2293 53.1907L48.2324 44.5579C48.7059 44.289 49.099 43.8987 49.3714 43.4272C49.6438 42.9557 49.7856 42.4202 49.7821 41.8757V24.5995C49.7821 23.5013 49.1934 22.4717 48.2324 21.9278L33.2293 13.295C32.7571 13.0253 32.2234 12.8817 31.6796 12.8779Z" fill="#DEE2DA"/>
<path id="Vector_3" d="M21.7588 48.3701L23.1369 44.6028L25.9089 46.8996L23.3217 49.2756L21.7588 48.3701Z" fill="#DEE2DA"/>
<path id="Vector_4" d="M30.4258 23.0604H26.611C26.4709 23.0635 26.335 23.1094 26.2217 23.192C26.1085 23.2746 26.0232 23.3899 25.9774 23.5224L17.833 46.0733L21.7587 48.3701L30.7426 23.5356C30.7627 23.4826 30.7694 23.4254 30.762 23.3692C30.7546 23.313 30.7335 23.2595 30.7004 23.2135C30.6689 23.1661 30.6261 23.1273 30.5758 23.1006C30.5256 23.0739 30.4695 23.0601 30.4126 23.0604H30.4258ZM37.0786 23.0604H33.277C33.1381 23.0627 33.0032 23.1071 32.8901 23.1877C32.7769 23.2683 32.6909 23.3813 32.6434 23.5118L23.3189 49.2413L27.2578 51.5381L37.3954 23.5277C37.4155 23.4759 37.4227 23.4201 37.4164 23.3649C37.4102 23.3098 37.3906 23.2569 37.3595 23.211C37.3283 23.165 37.2865 23.1273 37.2376 23.1011C37.1887 23.0749 37.1341 23.0609 37.0786 23.0604Z" fill="#DEE2DA"/>
</g>
</svg>
