<svg width="49" height="48" viewBox="0 0 49 48" fill="none" xmlns="http://www.w3.org/2000/svg">
<g id="mingcute:avalanche-avax-fill" clip-path="url(#clip0_427_423)">
<g id="Group">
<path id="Vector" fill-rule="evenodd" clip-rule="evenodd" d="M31.7758 17.398C32.0391 16.9419 32.1778 16.4246 32.1778 15.898C32.1778 15.3714 32.0391 14.854 31.7758 14.398L27.3278 6.69399C27.0645 6.23797 26.6858 5.85929 26.2298 5.59601C25.7737 5.33273 25.2564 5.19412 24.7298 5.19412C24.2033 5.19412 23.6859 5.33273 23.2299 5.59601C22.7739 5.85929 22.3952 6.23797 22.1318 6.69399L4.86384 36.6C4.60054 37.056 4.46192 37.5734 4.46191 38.1C4.46191 38.6266 4.60052 39.1439 4.86382 39.6C5.12711 40.056 5.50582 40.4347 5.96186 40.698C6.41791 40.9613 6.93523 41.1 7.46184 41.1H16.3578C16.8848 41.1003 17.4025 40.9619 17.8589 40.6985C18.3154 40.4352 18.6944 40.0563 18.9578 39.6L31.7758 17.398ZM41.9958 41.102C42.5226 41.1023 43.0402 40.964 43.4965 40.7008C43.9528 40.4376 44.3318 40.0589 44.5954 39.6028C44.8589 39.1467 44.9977 38.6292 44.9978 38.1025C44.9978 37.5757 44.8592 37.0582 44.5958 36.602L38.3278 25.746C38.0645 25.29 37.6858 24.9113 37.2298 24.648C36.7737 24.3847 36.2564 24.2461 35.7298 24.2461C35.2033 24.2461 34.6859 24.3847 34.2299 24.648C33.7739 24.9113 33.3952 25.29 33.1318 25.746L26.8638 36.602C26.6005 37.058 26.4619 37.5754 26.4619 38.102C26.4619 38.6286 26.6005 39.1459 26.8638 39.602C27.1271 40.058 27.5058 40.4367 27.9619 40.7C28.4179 40.9633 28.9352 41.102 29.4618 41.102H41.9978H41.9958Z" fill="#DEE2DA"/>
</g>
</g>
<defs>
<clipPath id="clip0_427_423">
<rect width="48" height="48" fill="white" transform="translate(0.5)"/>
</clipPath>
</defs>
</svg>
