<svg width="72" height="74" viewBox="0 0 72 74" fill="none" xmlns="http://www.w3.org/2000/svg">
<g id="token:binance-smart-chain">
<path id="Vector" d="M23.5647 21.4304L36.0204 14.4359L48.479 21.4245L43.9117 24.0145L36.0204 19.6011L28.1468 24.0174L23.5647 21.4304ZM48.479 30.2571L43.9117 27.6701L36.0204 32.0834L28.1468 27.6701L23.5676 30.2571V35.4223L31.4324 39.8327V48.6535L36.0204 51.2376L40.5995 48.6476V39.8327L48.479 35.4164V30.2571ZM48.479 44.249V39.075L43.9117 41.662V46.8242L48.479 44.249ZM51.738 46.0754L43.8614 50.4798V55.6539L56.3171 48.6506V34.6734L51.738 37.2486V46.0754ZM47.1588 25.8438L51.7261 28.4308V33.593L56.3171 31.0178V25.8438L51.738 23.2567L47.1588 25.8556V25.8438ZM31.4294 52.3565V57.5187L36.0204 60.1087L40.5995 57.5187V52.3683L36.0204 54.9435L31.4412 52.3565H31.4294ZM23.5647 44.2372L28.132 46.8242V41.662L23.5647 39.075V44.249V44.2372ZM31.4294 25.8438L36.0204 28.4308L40.5995 25.8438L36.0204 23.2567L31.4412 25.8556L31.4294 25.8438ZM20.3028 28.4308L24.8819 25.8438L20.3146 23.2567L15.7266 25.8556V31.0326L20.3028 33.6078V28.4308ZM20.3028 37.2486L15.7236 34.6734V48.6506L28.1823 55.6539V50.468L20.3146 46.0665V37.2368L20.3028 37.2486Z" fill="#DEE2DA"/>
</g>
</svg>
