<svg width="32" height="32" viewBox="0 0 32 32" fill="none" xmlns="http://www.w3.org/2000/svg">
<rect width="32" height="32" rx="4.8" fill="#1A1A1A"/>
<path d="M21.6002 12.8C22.9257 12.8 24.0002 11.7255 24.0002 10.4C24.0002 9.07452 22.9257 8 21.6002 8C20.2747 8 19.2002 9.07452 19.2002 10.4C19.2002 11.7255 20.2747 12.8 21.6002 12.8Z" stroke="white" stroke-width="1.6" stroke-linecap="round" stroke-linejoin="round"/>
<path d="M17.616 8.16C17.088 8.056 16.552 8 16 8C11.584 8 8 11.584 8 16C8 20.416 11.584 24 16 24C20.416 24 24 20.416 24 16C24 15.456 23.944 14.92 23.84 14.408" stroke="white" stroke-width="1.6" stroke-linecap="round" stroke-linejoin="round"/>
</svg>
