<svg width="72" height="74" viewBox="0 0 72 74" fill="none" xmlns="http://www.w3.org/2000/svg">
<g id="token:optimism">
<path id="Vector" fill-rule="evenodd" clip-rule="evenodd" d="M14.504 48.0852C16.2504 49.3343 18.4931 49.9589 21.2321 49.9589C24.5414 49.9589 27.1857 49.211 29.1649 47.7152C31.1422 46.1997 32.5334 43.9126 33.3385 40.8539C33.822 38.9792 34.2364 37.0483 34.5817 35.0612C34.6942 34.3508 34.7514 33.7588 34.7534 33.2852C34.7534 31.7263 34.3508 30.3883 33.5457 29.2714C32.7178 28.1139 31.5651 27.228 30.2335 26.7258C28.8304 26.1457 27.2439 25.8556 25.4738 25.8556C18.9677 25.8556 14.9322 28.9241 13.3674 35.0612C12.8149 37.3167 12.3896 39.2476 12.0916 40.8539C11.9873 41.4504 11.9289 42.0541 11.917 42.6595C11.917 45.0038 12.7793 46.8124 14.504 48.0852ZM26.9568 40.6556C26.2967 43.216 24.4763 44.8884 21.7146 44.8884C18.9825 44.8884 18.0501 43.0384 18.5415 40.6556C18.9559 38.4908 19.3703 36.6596 19.7847 35.1618C20.4951 32.3942 22.1704 30.929 25.0239 30.929C27.7471 30.929 28.6351 32.7524 28.1644 35.1618C27.8882 36.7267 27.4856 38.5599 26.9568 40.6556ZM37.4085 49.7161C37.5447 49.874 37.7351 49.9529 37.9798 49.9529H42.5441C42.7773 49.9501 43.0022 49.8664 43.1805 49.7161C43.3789 49.5639 43.5113 49.3415 43.5505 49.0945L44.992 42.3457H49.6333C52.5637 42.3457 54.8548 40.9249 56.5331 39.661C58.2341 38.3981 59.3638 36.4465 59.9223 33.8061C60.0543 33.2183 60.1217 32.6178 60.1236 32.0153C60.1236 30.0203 59.3638 28.4939 57.8444 27.4362C56.3446 26.3805 54.3535 25.8526 51.8711 25.8526H42.9467C42.7118 25.8564 42.4856 25.9423 42.3073 26.0953C42.1123 26.25 41.9815 26.4715 41.9403 26.7169L37.3079 49.0945C37.2583 49.3069 37.2945 49.5303 37.4085 49.7161ZM53.7181 33.7381C53.2978 35.5821 51.6905 37.2693 49.802 37.2693H45.9452L47.2742 30.9261H51.2998C52.6703 30.9261 53.8158 31.1984 53.8158 32.705C53.8158 33.001 53.7832 33.3464 53.7181 33.741" fill="#DEE2DA"/>
</g>
</svg>
