<svg width="49" height="48" viewBox="0 0 49 48" fill="none" xmlns="http://www.w3.org/2000/svg">
<g id="simple-icons:polygon" clip-path="url(#clip0_427_419)">
<path id="Vector" d="M36.14 32.684L47.524 26.11C47.8201 25.9381 48.0661 25.6916 48.2373 25.3951C48.4085 25.0986 48.4991 24.7624 48.5 24.42V11.27C48.4995 10.9273 48.409 10.5907 48.2378 10.2938C48.0665 9.99687 47.8204 9.75008 47.524 9.57801L36.138 3.00601C35.8408 2.8351 35.5039 2.74515 35.161 2.74515C34.8181 2.74515 34.4812 2.8351 34.184 3.00601L22.8 9.57801C22.5032 9.74983 22.2567 9.99651 22.0851 10.2934C21.9135 10.5903 21.8227 10.9271 21.822 11.27V34.764L13.84 39.372L5.856 34.764V25.544L13.84 20.936L19.106 23.976V17.792L14.816 15.316C14.5188 15.1451 14.1819 15.0551 13.839 15.0551C13.4961 15.0551 13.1592 15.1451 12.862 15.316L1.476 21.89C1.17958 22.0621 0.933464 22.3089 0.762207 22.6058C0.59095 22.9027 0.500541 23.2393 0.5 23.582V36.728C0.500192 37.0711 0.590435 37.4081 0.761709 37.7054C0.932983 38.0027 1.17929 38.2498 1.476 38.422L12.862 44.994C13.1592 45.1649 13.4961 45.2549 13.839 45.2549C14.1819 45.2549 14.5188 45.1649 14.816 44.994L26.2 38.422C26.4968 38.2502 26.7433 38.0035 26.9149 37.7066C27.0865 37.4097 27.1773 37.0729 27.178 36.73V13.236L27.322 13.154L35.162 8.62801L43.142 13.238V22.456L35.162 27.064L29.902 24.03V30.214L34.182 32.686C34.4795 32.8573 34.8167 32.9474 35.16 32.9474C35.5033 32.9474 35.8405 32.8573 36.138 32.686L36.14 32.684Z" fill="#DEE2DA"/>
</g>
<defs>
<clipPath id="clip0_427_419">
<rect width="48" height="48" fill="white" transform="translate(0.5)"/>
</clipPath>
</defs>
</svg>
